<mxfile host="app.diagrams.net" modified="2024-01-08T19:09:24.398Z" agent="Mozilla/5.0 (Macintosh; Intel Mac OS X 10_15_7) AppleWebKit/537.36 (KHTML, like Gecko) Chrome/120.0.0.0 Safari/537.36" version="22.1.17" etag="z_LKoNM6DoDDj9dMzVsr" type="github">
  <diagram name="Trang-1" id="XH6OXC314fcbk0lsmcRP">
    <mxGraphModel>
      <root>
        <mxCell id="0" />
        <mxCell id="1" parent="0" />
      </root>
    </mxGraphModel>
  </diagram>
</mxfile>
